<?xml version="1.0" encoding="UTF-8" standalone="no"?><!DOCTYPE svg PUBLIC "-//W3C//DTD SVG 1.1//EN" "http://www.w3.org/Graphics/SVG/1.1/DTD/svg11.dtd"><svg width="100%" height="100%" viewBox="0 0 56 22" version="1.1" xmlns="http://www.w3.org/2000/svg" xmlns:xlink="http://www.w3.org/1999/xlink" xml:space="preserve" style="fill-rule:evenodd;clip-rule:evenodd;stroke-linejoin:round;stroke-miterlimit:1.41421;"><g transform="matrix(2.26807,0,0,2.26807,-1507.26,-2150.09)"><path d="M666.081,952.602l5.539,-3.238c0.207,-0.112 0.286,-0.286 0.286,-0.477c0,-0.127 -0.032,-0.254 -0.095,-0.365c-0.096,-0.206 -0.286,-0.396 -0.54,-0.396c-0.079,0 -0.19,0.031 -0.286,0.095l-5.825,3.476c-0.413,0.254 -0.603,0.476 -0.603,0.92c0,0.429 0.19,0.651 0.587,0.873l5.825,3.524c0.096,0.064 0.207,0.095 0.302,0.095c0.238,0 0.429,-0.174 0.54,-0.396c0.047,-0.112 0.079,-0.239 0.079,-0.35c0,-0.19 -0.079,-0.365 -0.27,-0.492l-5.539,-3.269Z" style="fill:none;"/><path d="M677.017,953.157c1.444,0.286 1.857,0.714 1.857,1.492c0,0.81 -0.825,1.365 -2.095,1.365c-1.254,0 -1.905,-0.46 -2.191,-1.381c-0.095,-0.301 -0.381,-0.428 -0.682,-0.428c-0.064,0 -0.143,0.016 -0.222,0.031c-0.302,0.064 -0.572,0.286 -0.572,0.604c0,0.063 0.016,0.127 0.032,0.206c0.413,1.413 1.603,2.222 3.635,2.222c2.222,0 3.523,-1.127 3.523,-2.651c0,-1.666 -0.825,-2.269 -2.888,-2.698l-0.984,-0.206c-1.334,-0.286 -1.635,-0.603 -1.635,-1.334c0,-0.666 0.603,-1.19 1.889,-1.19c0.904,0 1.603,0.365 1.809,1.079c0.079,0.302 0.365,0.429 0.651,0.429c0.079,0 0.174,-0.016 0.254,-0.032c0.285,-0.079 0.555,-0.286 0.555,-0.587c0,-0.064 -0.016,-0.127 -0.031,-0.191c-0.397,-1.158 -1.524,-1.904 -3.286,-1.904c-2.048,0 -3.286,0.984 -3.286,2.428c0,1.508 0.81,2.191 2.762,2.572l0.905,0.174Z" style="fill:none;"/><path d="M687.35,952.602l-5.54,3.269c-0.206,0.127 -0.285,0.302 -0.285,0.492c0,0.111 0.031,0.238 0.079,0.35c0.111,0.222 0.302,0.396 0.556,0.396c0.095,0 0.19,-0.031 0.285,-0.095l5.841,-3.524c0.381,-0.222 0.588,-0.444 0.588,-0.873c0,-0.444 -0.207,-0.666 -0.604,-0.92l-5.825,-3.476c-0.095,-0.064 -0.206,-0.095 -0.301,-0.095c-0.238,0 -0.445,0.19 -0.54,0.396c-0.048,0.111 -0.079,0.238 -0.079,0.35c0,0.19 0.079,0.365 0.285,0.492l5.54,3.238Z" style="fill:none;"/><path d="M666.081,952.602l5.539,-3.238c0.207,-0.112 0.286,-0.286 0.286,-0.477c0,-0.127 -0.032,-0.254 -0.095,-0.365c-0.096,-0.206 -0.286,-0.396 -0.54,-0.396c-0.079,0 -0.19,0.031 -0.286,0.095l-5.825,3.476c-0.413,0.254 -0.603,0.476 -0.603,0.92c0,0.429 0.19,0.651 0.587,0.873l5.825,3.524c0.096,0.064 0.207,0.095 0.302,0.095c0.238,0 0.429,-0.174 0.54,-0.396c0.047,-0.112 0.079,-0.239 0.079,-0.35c0,-0.19 -0.079,-0.365 -0.27,-0.492l-5.539,-3.269Z" style="fill:#395c6b;fill-rule:nonzero;"/><path d="M677.017,953.157c1.444,0.286 1.857,0.714 1.857,1.492c0,0.81 -0.825,1.365 -2.095,1.365c-1.254,0 -1.905,-0.46 -2.191,-1.381c-0.095,-0.301 -0.381,-0.428 -0.682,-0.428c-0.064,0 -0.143,0.016 -0.222,0.031c-0.302,0.064 -0.572,0.286 -0.572,0.604c0,0.063 0.016,0.127 0.032,0.206c0.413,1.413 1.603,2.222 3.635,2.222c2.222,0 3.523,-1.127 3.523,-2.651c0,-1.666 -0.825,-2.269 -2.888,-2.698l-0.984,-0.206c-1.334,-0.286 -1.635,-0.603 -1.635,-1.334c0,-0.666 0.603,-1.19 1.889,-1.19c0.904,0 1.603,0.365 1.809,1.079c0.079,0.302 0.365,0.429 0.651,0.429c0.079,0 0.174,-0.016 0.254,-0.032c0.285,-0.079 0.555,-0.286 0.555,-0.587c0,-0.064 -0.016,-0.127 -0.031,-0.191c-0.397,-1.158 -1.524,-1.904 -3.286,-1.904c-2.048,0 -3.286,0.984 -3.286,2.428c0,1.508 0.81,2.191 2.762,2.572l0.905,0.174Z" style="fill:#395c6b;fill-rule:nonzero;"/><path d="M687.35,952.602l-5.54,3.269c-0.206,0.127 -0.285,0.302 -0.285,0.492c0,0.111 0.031,0.238 0.079,0.35c0.111,0.222 0.302,0.396 0.556,0.396c0.095,0 0.19,-0.031 0.285,-0.095l5.841,-3.524c0.381,-0.222 0.588,-0.444 0.588,-0.873c0,-0.444 -0.207,-0.666 -0.604,-0.92l-5.825,-3.476c-0.095,-0.064 -0.206,-0.095 -0.301,-0.095c-0.238,0 -0.445,0.19 -0.54,0.396c-0.048,0.111 -0.079,0.238 -0.079,0.35c0,0.19 0.079,0.365 0.285,0.492l5.54,3.238Z" style="fill:#395c6b;fill-rule:nonzero;"/></g></svg>